<svg width="339" height="68" viewBox="0 0 339 68" fill="none" xmlns="http://www.w3.org/2000/svg">
<rect width="339" height="68" fill="#E5E5E5"/>
<path d="M12 25.6552L23 12L40 19.4483V39.3103L32 48H18L12 25.6552Z" stroke="black"/>
<path d="M304 23L315 12L332 18V33L324 41H310L304 23Z" stroke="black"/>
<path d="M77 41.3793L88.7857 30L107 36.2069V52.7586L98.4286 60H83.4286L77 41.3793Z" stroke="black"/>
<path d="M169 49L178.429 38L193 44V60L186.143 67H174.143L169 49Z" stroke="black"/>
<path d="M245 43L256 32L273 38V54L265 61H251L245 43Z" stroke="black"/>
<path d="M1 2.48673C1.99 3.30939 5.98 4.95471 9.32 7.4326C12.9924 10.1571 18.64 10.7431 22.82 11.9795C27.3144 13.309 29.98 15.6988 37.305 18.8284C41.2765 20.5252 46.64 21.3088 51.81 22.5527C60.2088 24.5734 66.96 25.4419 72.815 26.3538C78.6427 27.2614 85.98 27.5927 92.64 29.1587C98.5243 30.5424 103.98 31.0617 108.15 32.546C112.654 34.1491 120.62 36.1662 125.985 37.6703C127.815 38.1834 129.99 38.0048 145.02 37.757C159.053 37.5256 186.12 37.6727 201.05 37.5092C221.534 37.2848 231.26 34.6993 237.985 33.7131C242.433 33.0608 249.28 31.2401 256.645 30.2416C261.257 29.6163 264.32 27.2755 269.475 25.3725C275.918 22.9941 280.98 23.301 285.98 21.6582C292.678 19.4575 296.64 17.027 302.31 16.5314C312.344 15.6544 316.98 9.76181 321.815 8.52039C326.051 7.43266 328.32 4.47895 331.985 3.15081C332.99 2.98231 333.98 2.98231 334.82 2.737C335.66 2.49169 336.32 2.00107 338 1" stroke="black" stroke-width="2" stroke-linecap="round"/>
</svg>
